<?xml version="1.0" encoding="UTF-8"?>
<svg width="10px" height="10px" viewBox="0 0 10 10" version="1.1" xmlns="http://www.w3.org/2000/svg" xmlns:xlink="http://www.w3.org/1999/xlink">
    <!-- Generator: Sketch 49.1 (51147) - http://www.bohemiancoding.com/sketch -->
    <title>Fill 155</title>
    <desc>Created with Sketch.</desc>
    <defs></defs>
    <g id="Symbols" stroke="none" stroke-width="1" fill="none" fill-rule="evenodd">
        <g id="footer" transform="translate(-922.000000, -180.000000)" fill="#DADADA">
            <path d="M931.333333,185.774263 L931.333333,186.606061 C931.333333,187.539111 930.998182,188.338384 930.328162,189.002747 C929.657859,189.667677 928.861414,190 927.939394,190 L925.393939,190 C924.460889,190 923.661616,189.667677 922.997253,189.002747 C922.332323,188.338384 922,187.539111 922,186.606061 L922,184.060606 C922,183.127273 922.332323,182.328283 922.997253,181.663636 C923.661616,180.998707 924.460889,180.666667 925.393939,180.666667 L926.242424,180.666667 L926.870586,181.328202 L925.869091,182.363636 L924.545455,182.363636 C924.313535,182.363636 924.114141,182.446788 923.947273,182.613657 C923.780404,182.780808 923.69697,182.979919 923.69697,183.212121 L923.69697,187.454545 C923.69697,187.686465 923.780404,187.885859 923.947273,188.052727 C924.114141,188.219596 924.313535,188.30303 924.545455,188.30303 L928.787879,188.30303 C929.020081,188.30303 929.219475,188.219596 929.386343,188.052727 C929.552929,187.885859 929.636364,187.686465 929.636364,187.454545 L929.636364,186.198505 L930.671798,185.155152 L931.333333,185.774263 L931.333333,185.774263 L931.333333,185.774263 L931.333333,185.774263 Z M932,180 L927.738636,180 L929.008807,181.269602 L926,184.184659 L927.815341,186 L930.730114,182.991477 L932,184.261364 L932,180 L932,180 Z" id="Fill-155"></path>
        </g>
    </g>
</svg>