<?xml version="1.0" encoding="UTF-8"?>
<svg width="22px" height="18px" viewBox="0 0 22 18" version="1.1" xmlns="http://www.w3.org/2000/svg" xmlns:xlink="http://www.w3.org/1999/xlink">
    <!-- Generator: sketchtool 47.1 (45422) - http://www.bohemiancoding.com/sketch -->
    <title>57A96691-3F55-4CDB-A456-D206D70ED863</title>
    <desc>Created with sketchtool.</desc>
    <defs></defs>
    <g id="Symbols" stroke="none" stroke-width="1" fill="none" fill-rule="evenodd">
        <g id="Header_blog" transform="translate(-283.000000, -21.000000)" fill-rule="nonzero" fill="#000000">
            <g id="Header">
                <g id="menu" transform="translate(283.000000, 21.000000)">
                    <path d="M0.687483927,2 C0.308024802,2 0,1.55203658 0,1 C0,0.447963425 0.308024802,0 0.687483927,0 L21.3125161,0 C21.6919752,0 22,0.447963425 22,1 C22,1.55195345 21.6920323,2 21.3125161,2 L0.687483927,2 Z M21.3125161,8 C21.6920323,8 22,8.44804655 22,9 C22,9.55195345 21.6920323,10 21.3125161,10 L0.687483927,10 C0.308024802,10 0,9.55195345 0,9 C0,8.44804655 0.307967655,8 0.687483927,8 L21.3125161,8 Z M21.3125161,16 C21.6920323,16 22.0000571,16.4479634 22,17 C22,17.5519534 21.6920323,18 21.3125161,18 L0.687483927,18 C0.308024802,18 0,17.5520366 0,17 C0,16.4480466 0.307967655,16 0.687483927,16 L21.3125161,16 Z" id="Combined-Shape"></path>
                </g>
            </g>
        </g>
    </g>
</svg>