<?xml version="1.0" encoding="UTF-8"?>
<svg width="6px" height="7px" viewBox="0 0 6 7" version="1.1" xmlns="http://www.w3.org/2000/svg" xmlns:xlink="http://www.w3.org/1999/xlink">
    <!-- Generator: Sketch 49.1 (51147) - http://www.bohemiancoding.com/sketch -->
    <title>icon_green</title>
    <desc>Created with Sketch.</desc>
    <defs></defs>
    <g id="other" stroke="none" stroke-width="1" fill="none" fill-rule="evenodd">
        <g id="Artboard" transform="translate(-212.000000, -282.000000)" fill="#FFFFFF">
            <path d="M213.516,286.01 C213.643,286.01 213.762,286.043 213.866,286.1 C213.971,285.658 214.368,285.328 214.843,285.328 C215.234,285.328 215.573,285.552 215.739,285.878 C215.813,285.859 215.89,285.849 215.969,285.849 C216.439,285.849 216.827,286.201 216.882,286.656 L212.793,286.656 C212.834,286.293 213.141,286.01 213.516,286.01 Z M217.544,286.927 C217.545,286.958 217.546,286.988 217.546,287.019 C217.546,287.11 217.541,287.201 217.533,287.29 L212.013,287.29 C212.004,287.201 212,287.11 212,287.019 C212,286.988 212,286.958 212.001,286.927 L217.544,286.927 Z M217.493,287.561 C217.382,288.119 217.104,288.617 216.713,289 L212.832,289 C212.441,288.617 212.163,288.119 212.053,287.561 L217.493,287.561 Z M213.949,284.734 C214.024,284.799 214.024,284.906 213.95,284.971 C213.876,285.037 213.755,285.037 213.681,284.972 C213.514,284.825 213.387,284.552 213.399,284.246 L213.399,284.242 C213.41,284.007 213.499,283.748 213.714,283.508 C213.885,283.317 213.913,283.141 213.883,282.997 C213.853,282.847 213.76,282.722 213.696,282.648 C213.633,282.574 213.649,282.469 213.733,282.413 C213.817,282.357 213.936,282.371 214,282.445 C214.087,282.546 214.214,282.718 214.259,282.938 C214.305,283.163 214.266,283.432 214.012,283.716 C213.855,283.891 213.789,284.081 213.781,284.253 L213.78,284.258 C213.772,284.468 213.849,284.645 213.949,284.734 Z M215.95,284.734 C216.025,284.799 216.025,284.906 215.951,284.971 C215.877,285.037 215.757,285.037 215.682,284.972 C215.515,284.825 215.388,284.552 215.4,284.246 L215.4,284.242 C215.411,284.007 215.501,283.748 215.716,283.508 C215.886,283.317 215.914,283.141 215.885,282.997 C215.854,282.847 215.761,282.722 215.697,282.648 C215.634,282.574 215.65,282.469 215.734,282.413 C215.818,282.357 215.938,282.371 216.001,282.445 C216.088,282.546 216.215,282.718 216.26,282.938 C216.306,283.163 216.267,283.432 216.014,283.716 C215.856,283.891 215.79,284.081 215.782,284.253 L215.782,284.258 C215.773,284.468 215.85,284.645 215.95,284.734 Z M214.95,284.734 C215.024,284.799 215.024,284.906 214.951,284.971 C214.877,285.037 214.756,285.037 214.681,284.972 C214.514,284.825 214.388,284.552 214.4,284.246 L214.4,284.242 C214.41,284.007 214.5,283.748 214.715,283.508 C214.886,283.317 214.914,283.141 214.884,282.997 C214.854,282.847 214.76,282.722 214.697,282.648 C214.633,282.574 214.65,282.469 214.734,282.413 C214.818,282.357 214.937,282.371 215.001,282.445 C215.087,282.546 215.215,282.718 215.26,282.938 C215.306,283.163 215.266,283.432 215.013,283.716 C214.855,283.891 214.789,284.081 214.781,284.253 L214.781,284.258 C214.773,284.468 214.849,284.645 214.95,284.734 Z" id="icon_green"></path>
        </g>
    </g>
</svg>
