<?xml version="1.0" encoding="UTF-8"?>
<svg width="28px" height="28px" viewBox="0 0 28 28" version="1.1" xmlns="http://www.w3.org/2000/svg" xmlns:xlink="http://www.w3.org/1999/xlink">
    <!-- Generator: Sketch 51.3 (57544) - http://www.bohemiancoding.com/sketch -->
    <title>search</title>
    <desc>Created with Sketch.</desc>
    <defs></defs>
    <g id="blog" stroke="none" stroke-width="1" fill="none" fill-rule="evenodd">
        <g id="Chefmarket_20_blog_search-Copy-4" transform="translate(-136.000000, -325.000000)" fill="#999999" fill-rule="nonzero">
            <g id="search" transform="translate(136.000000, 315.000000)">
                <path d="M27.6758703,36.120048 L19.7827131,28.2268908 C21.3601441,26.3037215 22.3109244,23.8403361 22.3109244,21.1554622 C22.3109244,14.9969988 17.3139256,10 11.1554622,10 C4.99159664,10 0,14.9969988 0,21.1554622 C0,27.3139256 4.99159664,32.3109244 11.1554622,32.3109244 C13.8403361,32.3109244 16.2983193,31.3655462 18.2214886,29.7881152 L26.1146459,37.6758703 C26.5468187,38.1080432 27.2436975,38.1080432 27.6758703,37.6758703 C28.1080432,37.2490996 28.1080432,36.5468187 27.6758703,36.120048 Z M11.1554622,30.0906363 C6.22328932,30.0906363 2.21488595,26.0822329 2.21488595,21.1554622 C2.21488595,16.2286915 6.22328932,12.214886 11.1554622,12.214886 C16.0822329,12.214886 20.0960384,16.2286915 20.0960384,21.1554622 C20.0960384,26.0822329 16.0822329,30.0906363 11.1554622,30.0906363 Z"></path>
            </g>
        </g>
    </g>
</svg>
