<?xml version="1.0" encoding="UTF-8"?>
<svg width="86px" height="79px" viewBox="0 0 86 79" version="1.1" xmlns="http://www.w3.org/2000/svg" xmlns:xlink="http://www.w3.org/1999/xlink">
    <!-- Generator: sketchtool 49.1 (51147) - http://www.bohemiancoding.com/sketch -->
    <title>3AEB2310-66F8-495C-9A2D-10C0B11F20DB@1x</title>
    <desc>Created with sketchtool.</desc>
    <defs></defs>
    <g id="Chefmarket_18_other" stroke="none" stroke-width="1" fill="none" fill-rule="evenodd">
        <g id="Chefmarket_17_how_it_works" transform="translate(-678.000000, -5620.000000)">
            <g id="Group-9" transform="translate(276.000000, 5515.000000)">
                <g id="2" transform="translate(0.000000, 106.000000)">
                    <g id="pig-icon" transform="translate(403.000000, 0.000000)">
                        <path d="M23.1109857,23.1266353 C15.4840209,27.7806055 11,35.1743462 11,43.5 C11,52.2792883 15.3754104,60.0223437 23.69562,64.6094045 C24.4540757,65.0275529 24.9627603,75.5573384 25.882996,75.7090888 C27.8648622,76.0359062 31.3525021,76.0359062 33.3054661,76.0359062 C35.2633454,76.0359062 34.324847,68.2789062 35.545953,68.4633561 C37.8746391,68.8151075 40.3605426,69 43,69 C45.4974773,69 47.8719754,68.8344637 50.1168992,68.5186684 C52.2863922,68.2134841 50.2253315,76.0359062 52.530839,76.0359062 C53.7361457,76.0359062 58.0492566,76.0359062 59.637608,76.0359062 C61.2259595,76.0359062 61.3926981,65.2474926 62.2692357,64.7949465 C67.3819501,62.1553117 71.1750538,58.4201953 73.4639385,54.0172211 C74.4373576,52.1447202 79.6917008,53.8860944 82.0694364,51.2335564 C83.7634712,49.3437368 82.9168718,43.046515 82.9168718,41.4864157 C82.9168718,39.6314064 75.7600516,39.8362441 75.2995585,38.0937564 C72.8037049,28.6495443 63.8291403,21.1517505 51.4652562,18.7840989 C48.7915863,18.2720981 45.9594204,18 43,18" id="Oval-8" stroke="#4C494E" stroke-width="2" fill="#EAEAEA" stroke-linecap="round" stroke-linejoin="round"></path>
                        <path d="M64,39 C64,40.6568542 65.3431458,42 67,42 C68.6568542,42 70,40.6568542 70,39" id="Oval-11" stroke="#4C494E" stroke-width="2" stroke-linecap="round" stroke-linejoin="round"></path>
                        <path d="M10.8647075,40.988666 C5.745587,42.3534095 0.712557271,38.8892813 2.97059488,35.7633669 C5.22863249,32.6374524 10.3098259,38.3850355 6.64021037,43.4709495 C4.85328258,45.4155074 2.73719327,46.2650729 0.291942422,46.0196459" id="Path-7" stroke="#4C494E" stroke-width="2" stroke-linecap="round" stroke-linejoin="round"></path>
                        <path d="M62.5,34 C72.2266157,35.7141691 71.4323397,17.6783006 70,16.1302619 C68.6540767,14.6756199 54.8005011,17.4921709 55,25.5 C55,30.1944204 58.3578644,34 62.5,34 Z" id="Oval-10" stroke="#4C494E" stroke-width="2" fill="#FFFFFF" stroke-linecap="round" stroke-linejoin="round"></path>
                        <path d="M42.3306454,24.4375689 C45.1963692,21.8739982 47,18.1476294 47,14 C47,6.2680135 40.7319865,0 33,0 C25.2680135,0 19,6.2680135 19,14 C19,20.4507067 23.3627702,25.8824338 29.2986248,27.5054955" id="Oval-12" stroke="#4C494E" stroke-width="2" fill="#59B958" stroke-linecap="round" stroke-linejoin="round"></path>
                        <path d="M34.7601626,18.8455285 L32.097561,18.8455285 L32.097561,21 L29.7601626,21 L29.7601626,18.8455285 L28.2764228,18.8455285 L28.2764228,17.0162602 L29.7601626,17.0162602 L29.7601626,15.3902439 L28.2764228,15.3902439 L28.2764228,13.3577236 L29.7601626,13.3577236 L29.7601626,6.75203252 L33.5406504,6.75203252 C34.5704659,6.75203252 35.4173409,6.89430752 36.0813008,7.17886179 C36.7452608,7.46341606 37.2703233,7.82587856 37.6565041,8.26626016 C38.0426849,8.70664177 38.3069099,9.18427927 38.449187,9.69918699 C38.5914641,10.2140947 38.6626016,10.6951197 38.6626016,11.1422764 C38.6626016,11.5894331 38.5846891,12.0670706 38.4288618,12.5752033 C38.2730345,13.0833359 37.998647,13.5474234 37.6056911,13.9674797 C37.2127352,14.387536 36.6876727,14.7364485 36.0304878,15.0142276 C35.3733029,15.2920068 34.5433654,15.4308943 33.5406504,15.4308943 L32.097561,15.4308943 L32.097561,17.0162602 L34.7601626,17.0162602 L34.7601626,18.8455285 Z M32.097561,13.3577236 L33.5813008,13.3577236 C33.8658551,13.3577236 34.1673426,13.3272361 34.4857724,13.2662602 C34.8042021,13.2052842 35.1023021,13.0934967 35.3800813,12.9308943 C35.6578605,12.7682919 35.884823,12.5413294 36.0609756,12.25 C36.2371283,11.9586706 36.3252033,11.5826581 36.3252033,11.1219512 C36.3252033,10.6476941 36.2472908,10.2615191 36.0914634,9.96341463 C35.9356361,9.66531016 35.7289986,9.43157266 35.4715447,9.26219512 C35.2140909,9.09281758 34.9261534,8.97764258 34.6077236,8.91666667 C34.2892938,8.85569075 33.9607063,8.82520325 33.6219512,8.82520325 L32.097561,8.82520325 L32.097561,13.3577236 Z" id="₽" fill="#FFFFFF"></path>
                        <path d="M46.1973156,27.7982736 C43.3565299,26.6690791 39.825855,26 36,26 C32.3252255,26 28.9227784,26.6172795 26.1424297,27.6666656" id="Oval-9" stroke="#4C494E" stroke-width="2" stroke-linecap="round" stroke-linejoin="round" transform="translate(36.169873, 26.899137) rotate(-10.000000) translate(-36.169873, -26.899137) "></path>
                    </g>
                </g>
            </g>
        </g>
    </g>
</svg>