<svg width="142" height="142" viewBox="0 0 142 142" fill="none" xmlns="http://www.w3.org/2000/svg">
<g id="button/play">
<path id="Ellipse 3" opacity="0.2" fill-rule="evenodd" clip-rule="evenodd" d="M71.0001 0.999964C109.66 0.999964 141 32.3401 141 70.9999C141 109.66 109.66 141 71.0001 141C32.3402 141 1.00011 109.66 1.00011 70.9999C1.00011 32.3401 32.3402 0.999964 71.0001 0.999964Z" fill="#59B958"/>
<g id="Page 1">
<path id="Fill 1" fill-rule="evenodd" clip-rule="evenodd" d="M71 16C40.6247 16 16 40.6243 16 71C16 101.376 40.6247 126 71 126C101.375 126 126 101.376 126 71C126 40.6243 101.375 16 71 16" fill="#59B958"/>
<path id="Fill 3" fill-rule="evenodd" clip-rule="evenodd" d="M59.0207 91.1937C59.5402 91.4825 60.1143 91.6251 60.6875 91.6251C61.3202 91.6251 61.9529 91.4504 62.5094 91.103L90.0094 73.9155C91.014 73.286 91.625 72.1848 91.625 71.0001C91.625 69.8152 91.014 68.7142 90.0094 68.0847L62.5094 50.8972C61.4496 50.2342 60.1134 50.1972 59.0207 50.8065C57.928 51.4124 57.25 52.5622 57.25 53.8126V88.1876C57.25 89.438 57.928 90.5878 59.0207 91.1937" fill="white"/>
</g>
</g>
</svg>
