<?xml version="1.0" encoding="UTF-8"?>
<svg width="140px" height="50px" viewBox="0 0 140 50" version="1.1" xmlns="http://www.w3.org/2000/svg" xmlns:xlink="http://www.w3.org/1999/xlink">
    <!-- Generator: Sketch 49.1 (51147) - http://www.bohemiancoding.com/sketch -->
    <title>Chefmarket_LOGO_NEW_Horizontal</title>
    <desc>Created with Sketch.</desc>
    <defs>
        <polygon id="path-1" points="0.0195804196 0.0688578089 35.3834499 0.0688578089 35.3834499 48.3473193 0.0195804196 48.3473193"></polygon>
    </defs>
    <g id="Symbols" stroke="none" stroke-width="1" fill="none" fill-rule="evenodd">
        <g id="Header/Login/Menu" transform="translate(-135.000000, -53.000000)">
            <g id="Chefmarket_LOGO_NEW_Horizontal" transform="translate(135.000000, 53.000000)">
                <polyline id="Fill-1" fill="#333333" points="42.7773427 16.830676 42.7773427 2.84275058 44.8202331 2.84275058 44.8202331 15.1124942 47.3134732 15.1124942 47.3134732 2.84275058 49.3579953 2.84275058 49.3579953 15.1124942 51.8505828 15.1124942 51.8505828 2.84275058 53.8944522 2.84275058 53.8944522 16.830676 42.7773427 16.830676"></polyline>
                <polyline id="Fill-2" fill="#333333" points="56.948345 2.84275058 63.1700233 2.84275058 63.1700233 4.56158508 58.9922145 4.56158508 58.9922145 8.83794872 62.8103963 8.83794872 62.8103963 10.5564569 58.9922145 10.5564569 58.9922145 15.1124942 63.2594406 15.1124942 63.2594406 16.830676 56.948345 16.830676 56.948345 2.84275058"></polyline>
                <path d="M72.1088112,5.86074592 L72.1088112,13.6733333 C72.2132401,13.7000932 72.4681119,13.7134732 72.8724476,13.7134732 C74.1601865,13.7134732 74.8037296,12.3620979 74.8037296,9.65641026 C74.8037296,7.04634033 74.2120746,5.74065268 73.0290909,5.74065268 C72.5950583,5.74065268 72.2882984,5.78079254 72.1088112,5.86074592 Z M70.2444289,13.6132867 L70.2444289,5.80102564 C70.0345921,5.76088578 69.780373,5.74065268 69.4807925,5.74065268 C68.1927273,5.74065268 67.5491841,7.09920746 67.5491841,9.81664336 C67.5491841,12.414965 68.1630303,13.7134732 69.3907226,13.7134732 C69.8103963,13.7134732 70.094965,13.6805128 70.2444289,13.6132867 Z M70.1768765,15.2929604 C69.8626107,15.3585548 69.4213986,15.3921678 68.8516084,15.3921678 C66.6207459,15.3921678 65.5049883,13.5411655 65.5049883,9.8372028 C65.5049883,7.95846154 65.8234965,6.52648019 66.4601865,5.5409324 C67.0962238,4.55538462 67.9907226,4.06195804 69.1440093,4.06195804 C69.6080653,4.06195804 69.9523543,4.08839161 70.1768765,4.14223776 L70.1768765,2.44331002 L72.1988811,2.44331002 L72.1988811,4.20195804 C72.4831235,4.10895105 72.9249883,4.06195804 73.5231702,4.06195804 C74.5713753,4.06195804 75.3875524,4.51785548 75.9713753,5.43030303 C76.5555245,6.3437296 76.8475991,7.74503497 76.8475991,9.63682984 C76.8475991,11.5420047 76.5219114,12.9782284 75.8708625,13.9441958 C75.2191608,14.9091841 74.3621911,15.3921678 73.2989744,15.3921678 C72.8199068,15.3921678 72.4531002,15.3451748 72.1988811,15.2528205 L72.1988811,17.2310956 L70.1768765,17.2310956 L70.1768765,15.2929604 Z" id="Fill-3" fill="#333333"></path>
                <polyline id="Fill-4" fill="#333333" points="87.5381818 8.61864802 87.8077389 6.2595338 87.6958042 6.2595338 87.0444289 8.51748252 84.7979021 13.8740326 84.1024709 13.8740326 81.7211655 8.51748252 81.0472727 6.23995338 80.9575291 6.23995338 81.3168298 8.61864802 81.3168298 16.830676 79.3630303 16.830676 79.3630303 2.84275058 81.3393473 2.84275058 84.1024709 9.11729604 84.5286713 10.8756177 84.5958974 10.8756177 84.9999068 9.09738928 87.6285781 2.84275058 89.5820513 2.84275058 89.5820513 16.830676 87.5381818 16.830676 87.5381818 8.61864802"></polyline>
                <path d="M94.9493706,11.634359 L97.3975758,11.634359 L96.4988345,7.7186014 L96.1848951,5.58107226 L96.1170163,5.58107226 L95.8255944,7.73818182 L94.9493706,11.634359 Z M97.7346853,13.2135198 L94.545035,13.2135198 L93.6919814,16.830676 L91.6477855,16.830676 L95.4434499,2.6834965 L96.9485315,2.6834965 L100.766713,16.830676 L98.6102564,16.830676 L97.7346853,13.2135198 Z" id="Fill-5" fill="#333333"></path>
                <path d="M104.876643,4.42158508 L104.876643,10.0362704 C105.055478,10.1034965 105.355058,10.1367832 105.774732,10.1367832 C107.271329,10.1367832 108.02028,9.11729604 108.02028,7.0793007 C108.02028,5.25375291 107.31669,4.34195804 105.908858,4.34195804 C105.445128,4.34195804 105.100513,4.36871795 104.876643,4.42158508 Z M102.832448,2.98307692 C103.685828,2.76997669 104.651469,2.66358974 105.730023,2.66358974 C106.343217,2.66358974 106.894079,2.72624709 107.38,2.85286713 C107.8669,2.97948718 108.331282,3.19324009 108.772821,3.49282051 C109.215012,3.79240093 109.555058,4.24829837 109.794918,4.86149184 C110.034452,5.47435897 110.154219,6.21972028 110.154219,7.09920746 C110.154219,8.69729604 109.768811,9.88321678 108.997669,10.656317 C108.226527,11.4290909 107.249138,11.8158042 106.06648,11.8158042 C105.45296,11.8158042 105.055478,11.7880653 104.876643,11.7358508 L104.876643,16.830676 L102.832448,16.830676 L102.832448,2.98307692 Z" id="Fill-6" fill="#333333"></path>
                <polyline id="Fill-7" fill="#333333" points="115.252634 10.5564569 114.691002 10.5564569 114.691002 16.830676 112.647133 16.830676 112.647133 2.84275058 114.691002 2.84275058 114.691002 9.2383683 115.207599 8.97794872 118.104522 2.84275058 120.417949 2.84275058 117.341212 8.81771562 116.555058 9.49715618 117.385921 10.2764569 120.889837 16.830676 118.396923 16.830676 115.252634 10.5564569"></polyline>
                <polyline id="Fill-8" fill="#333333" points="123.247972 2.84275058 129.468998 2.84275058 129.468998 4.56158508 125.291515 4.56158508 125.291515 8.83794872 129.109044 8.83794872 129.109044 10.5564569 125.291515 10.5564569 125.291515 15.1124942 129.558415 15.1124942 129.558415 16.830676 123.247972 16.830676 123.247972 2.84275058"></polyline>
                <polyline id="Fill-9" fill="#333333" points="139.822471 4.56158508 136.723217 4.56158508 136.723217 16.830676 134.679021 16.830676 134.679021 4.56158508 131.580093 4.56158508 131.580093 2.84275058 139.822471 2.84275058 139.822471 4.56158508"></polyline>
                <polyline id="Fill-10" fill="#333333" points="46.2199068 25.9773427 43.7227506 25.9773427 43.7227506 33.6048951 42.7773427 33.6048951 42.7773427 25.1957576 46.2199068 25.1957576 46.2199068 25.9773427"></polyline>
                <path d="M48.1159441,31.1713753 C48.2102564,31.6804662 48.3812587,32.1076457 48.6286247,32.4522611 C48.876317,32.7952448 49.1896037,32.9675524 49.5668531,32.9675524 C50.6379021,32.9675524 51.1737529,31.7786946 51.1737529,29.4013054 C51.1737529,28.3527739 51.0471329,27.4954779 50.7961772,26.8307226 C50.5435897,26.1659674 50.1337063,25.8324476 49.5668531,25.8324476 C48.5052681,25.8324476 47.9736597,27.0232634 47.9736597,29.4013054 C47.9736597,30.0729138 48.020979,30.6639161 48.1159441,31.1713753 Z M47.6159907,26.1333333 C48.0258741,25.4131002 48.6756177,25.0524942 49.5668531,25.0524942 C50.5027972,25.0524942 51.1668998,25.4206061 51.5585082,26.1581352 C51.9491375,26.896317 52.1449417,27.9748718 52.1449417,29.4013054 C52.1449417,30.8584149 51.9383683,31.9464336 51.5242424,32.6682984 C51.1101166,33.3888578 50.4584149,33.7481585 49.5668531,33.7481585 C48.6400466,33.7481585 47.9811655,33.380373 47.5892308,32.6434965 C47.1976224,31.9072727 47.0018182,30.8244755 47.0018182,29.4013054 C47.0018182,27.9435431 47.2067599,26.8548718 47.6159907,26.1333333 Z" id="Fill-11" fill="#333333"></path>
                <polyline id="Fill-12" fill="#333333" points="57.7318881 25.9773427 55.8420513 25.9773427 55.8420513 33.6048951 54.897296 33.6048951 54.897296 25.9773427 53.0074592 25.9773427 53.0074592 25.1957576 57.7318881 25.1957576 57.7318881 25.9773427"></polyline>
                <path d="M59.7088578,31.1713753 C59.8038228,31.6804662 59.9741725,32.1076457 60.2215385,32.4522611 C60.4695571,32.7952448 60.7825175,32.9675524 61.1604196,32.9675524 C62.2308159,32.9675524 62.7663403,31.7786946 62.7663403,29.4013054 C62.7663403,28.3527739 62.6406993,27.4954779 62.3884382,26.8307226 C62.1361772,26.1659674 61.7269464,25.8324476 61.1604196,25.8324476 C60.0978555,25.8324476 59.5668998,27.0232634 59.5668998,29.4013054 C59.5668998,30.0729138 59.6142191,30.6639161 59.7088578,31.1713753 Z M59.2098834,26.1333333 C59.6191142,25.4131002 60.2688578,25.0524942 61.1604196,25.0524942 C62.095711,25.0524942 62.7594872,25.4206061 63.1517483,26.1581352 C63.5423776,26.896317 63.7388345,27.9748718 63.7388345,29.4013054 C63.7388345,30.8584149 63.5309557,31.9464336 63.1168298,32.6682984 C62.7040093,33.3888578 62.0503497,33.7481585 61.1604196,33.7481585 C60.2329604,33.7481585 59.5737529,33.380373 59.1824709,32.6434965 C58.7911888,31.9072727 58.5944056,30.8244755 58.5944056,29.4013054 C58.5944056,27.9435431 58.8003263,26.8548718 59.2098834,26.1333333 Z" id="Fill-13" fill="#333333"></path>
                <path d="M68.3128205,32.4767366 C68.5559441,32.1787879 68.6770163,31.7747786 68.6770163,31.2630769 C68.6770163,30.6531469 68.5448485,30.241958 68.2788811,30.0259207 C68.0132401,29.8085781 67.6470862,29.7021911 67.1781352,29.7021911 L66.4771562,29.7021911 L66.4771562,32.8353846 C66.6116084,32.8921678 66.8994406,32.9189277 67.3413054,32.9189277 C67.745641,32.9189277 68.069697,32.7730536 68.3128205,32.4767366 Z M66.9089044,28.9561772 C67.1601865,28.9561772 67.386014,28.9359441 67.5841026,28.8964569 C67.8536597,28.7841958 68.0723077,28.5880653 68.2387413,28.3061072 C68.4045221,28.0277389 68.4887179,27.6987879 68.4887179,27.3234965 C68.4887179,26.3614452 68.0964569,25.8810723 67.3138928,25.8810723 C66.8814918,25.8810723 66.6024709,25.901958 66.4771562,25.9420979 L66.4771562,28.9561772 L66.9089044,28.9561772 Z M69.1769697,28.3674592 C68.9876923,28.7522145 68.6952914,29.0155711 68.2997669,29.1598135 L68.2997669,29.2074592 C69.1988345,29.4159907 69.6488578,30.085641 69.6488578,31.2144522 C69.6488578,32.045641 69.4328205,32.6702564 69.0013986,33.0827506 C68.5696503,33.4958974 67.9926807,33.6998601 67.2734266,33.6998601 C66.4905361,33.6998601 65.909324,33.647972 65.5317483,33.5441958 L65.5317483,25.2691841 C66.0542191,25.1569231 66.6429371,25.1020979 67.3001865,25.1020979 C67.9665734,25.1020979 68.4929604,25.2411189 68.88,25.5214452 C69.2663869,25.8007925 69.4605594,26.3297902 69.4605594,27.1071329 C69.4605594,27.5630303 69.3652681,27.9830303 69.1769697,28.3674592 Z" id="Fill-14" fill="#333333"></path>
                <polyline id="Fill-15" fill="#333333" points="75.1414918 28.234965 75.2364569 27.0340326 75.1816317 27.0340326 74.8037296 28.2845688 72.1045688 33.6048951 71.4303497 33.6048951 71.4303497 25.1957576 72.3741259 25.1957576 72.3741259 30.6378089 72.2661072 31.8387413 72.3065734 31.8387413 72.6985082 30.5898368 75.4250816 25.1957576 76.0868998 25.1957576 76.0868998 33.6048951 75.1414918 33.6048951 75.1414918 28.234965"></polyline>
                <polyline id="Fill-16" fill="#333333" points="82.2808392 25.9773427 80.3910023 25.9773427 80.3910023 33.6048951 79.4455944 33.6048951 79.4455944 25.9773427 77.5570629 25.9773427 77.5570629 25.1957576 82.2808392 25.1957576 82.2808392 25.9773427"></polyline>
                <path d="M86.8554779,30.9634965 C86.8554779,30.2987413 86.7324476,29.8275058 86.4854079,29.5504429 C86.2377156,29.274359 85.884289,29.1359907 85.4248019,29.1359907 C85.1102098,29.1359907 84.8723077,29.1718881 84.7094639,29.2449883 L84.7094639,32.8481119 C84.8723077,32.8973893 85.1102098,32.9189277 85.4248019,32.9189277 C86.3793473,32.9189277 86.8554779,32.2682051 86.8554779,30.9634965 Z M83.7643823,25.1957576 L84.7094639,25.1957576 L84.7094639,28.4630769 C84.9708625,28.3909557 85.2720746,28.3547319 85.6150583,28.3547319 C87.0901166,28.3547319 87.8282984,29.1960373 87.8282984,30.8779953 C87.8282984,31.8468998 87.623683,32.5599534 87.2144522,33.0151981 C86.8048951,33.4714219 86.1809324,33.6998601 85.3445221,33.6998601 C84.732634,33.6998601 84.2059207,33.647972 83.7643823,33.5441958 L83.7643823,25.1957576 Z" id="Fill-17" fill="#333333"></path>
                <path d="M95.3445688,25.9773427 L93.7383217,25.9773427 C93.6214918,29.4447086 93.4012121,31.639021 93.0768298,32.5599534 C92.8337063,33.2948718 92.4512354,33.6639627 91.9294172,33.6639627 C91.7234965,33.6639627 91.5286713,33.6251282 91.3482051,33.5441958 L91.4705828,32.7622844 C91.5335664,32.7864336 91.5965501,32.7991608 91.6601865,32.7991608 C91.8931935,32.7991608 92.0827972,32.5912821 92.2263869,32.1751981 C92.5863403,31.1814918 92.7886713,28.8569697 92.8337063,25.1957576 L96.2889977,25.1957576 L96.2889977,33.6048951 L95.3445688,33.6048951 L95.3445688,25.9773427" id="Fill-18" fill="#333333"></path>
                <polyline id="Fill-19" fill="#333333" points="98.2989277 25.1957576 101.795991 25.1957576 101.795991 25.9773427 99.244662 25.9773427 99.244662 28.8964569 101.579301 28.8964569 101.579301 29.6770629 99.244662 29.6770629 99.244662 32.8239627 101.850163 32.8239627 101.850163 33.6048951 98.2989277 33.6048951 98.2989277 25.1957576"></polyline>
                <polyline id="Fill-20" fill="#333333" points="107.139814 25.9773427 104.642657 25.9773427 104.642657 33.6048951 103.697249 33.6048951 103.697249 25.1957576 107.139814 25.1957576 107.139814 25.9773427"></polyline>
                <polyline id="Fill-21" fill="#333333" points="109.66373 29.7136131 109.298555 29.7136131 109.298555 33.6048951 108.353473 33.6048951 108.353473 25.1957576 109.298555 25.1957576 109.298555 29.1131469 109.649697 28.9447552 111.566946 25.1957576 112.64648 25.1957576 110.689744 28.8243357 110.271049 29.2074592 110.742611 29.6888112 112.917016 33.6048951 111.755897 33.6048951 109.66373 29.7136131"></polyline>
                <path d="M115.270583,31.1713753 C115.365221,31.6804662 115.53655,32.1076457 115.783916,32.4522611 C116.030956,32.7952448 116.344242,32.9675524 116.721818,32.9675524 C117.792541,32.9675524 118.328392,31.7786946 118.328392,29.4013054 C118.328392,28.3527739 118.203077,27.4954779 117.95049,26.8307226 C117.698555,26.1659674 117.289324,25.8324476 116.721818,25.8324476 C115.65958,25.8324476 115.128625,27.0232634 115.128625,29.4013054 C115.128625,30.0729138 115.176597,30.6639161 115.270583,31.1713753 Z M114.771608,26.1333333 C115.180839,25.4131002 115.830909,25.0524942 116.721818,25.0524942 C117.658089,25.0524942 118.321538,25.4206061 118.713473,26.1581352 C119.103776,26.896317 119.300559,27.9748718 119.300559,29.4013054 C119.300559,30.8584149 119.09366,31.9464336 118.679207,32.6682984 C118.265408,33.3888578 117.612075,33.7481585 116.721818,33.7481585 C115.795338,33.7481585 115.136131,33.380373 114.744522,32.6434965 C114.352914,31.9072727 114.156783,30.8244755 114.156783,29.4013054 C114.156783,27.9435431 114.361399,26.8548718 114.771608,26.1333333 Z" id="Fill-22" fill="#333333"></path>
                <path d="M46.1275524,48.1231235 C45.8632168,48.3593939 45.4517016,48.4752448 44.8933333,48.4752448 C43.4819114,48.4752448 42.7773427,47.3226107 42.7773427,45.01669 C42.7773427,43.8131469 42.9724942,42.9336597 43.3631235,42.3814918 C43.7524476,41.8316084 44.2667599,41.5558508 44.9037762,41.5558508 C45.3544522,41.5558508 45.7450816,41.6322145 46.0740326,41.7836364 L45.9013986,42.2989277 C45.6377156,42.15338 45.3221445,42.0815851 44.9579487,42.0815851 C44.4991142,42.0815851 44.1287179,42.3136131 43.8457809,42.777669 C43.5634965,43.2430303 43.4212121,43.9880653 43.4212121,45.01669 C43.4212121,45.9901632 43.5612121,46.7237762 43.8395804,47.2142657 C44.1202331,47.707366 44.521958,47.9498368 45.0434499,47.9498368 C45.3655478,47.9498368 45.6765501,47.8480186 45.9777622,47.6453613 L46.1275524,48.1231235" id="Fill-23" fill="#333333"></path>
                <path d="M51.8016317,45.3309557 C51.4713753,46.1781352 51.1097902,46.8937995 50.7162238,47.4727273 L50.3614918,47.8950117 L50.3614918,47.9220979 L50.8242424,47.8538928 L52.3913287,47.8538928 L52.3913287,48.3616783 L49.5893706,48.3616783 L49.5893706,48.1032168 C50.0544056,47.4919814 50.5187879,46.7041958 50.9844755,45.7359441 C51.4501632,44.7722611 51.6834965,43.9117016 51.6834965,43.1614452 C51.6834965,42.8187879 51.6064802,42.5469464 51.4531002,42.3531002 C51.2980886,42.1579487 51.0817249,42.062331 50.802704,42.062331 C50.5018182,42.062331 50.2113753,42.1497902 49.9323543,42.3292774 L49.7179487,41.9275524 C50.0322145,41.6782284 50.4407925,41.5558508 50.9420513,41.5558508 C51.3855478,41.5558508 51.7220047,41.6929138 51.9510956,41.9663869 C52.1801865,42.2401865 52.2944056,42.6024242 52.2944056,43.05669 C52.2944056,43.7237296 52.1302564,44.4837762 51.8016317,45.3309557" id="Fill-24" fill="#333333"></path>
                <path d="M55.6909557,47.9687646 C56.0336131,47.9687646 56.2822844,47.7364103 56.436317,47.2697436 C56.5903497,46.8043823 56.6676923,46.0531469 56.6676923,45.01669 C56.6676923,44.0086247 56.5903497,43.2626107 56.436317,42.7819114 C56.2822844,42.3002331 56.0238228,42.062331 55.6583217,42.062331 C55.3140326,42.062331 55.0611189,42.294359 54.9008858,42.7561305 C54.74,43.2165967 54.6593939,43.9701166 54.6593939,45.01669 C54.6593939,46.9841958 55.0030303,47.9687646 55.6909557,47.9687646 Z M54.444662,42.3465734 C54.7096503,41.8185548 55.113986,41.5558508 55.6583217,41.5558508 C56.2307226,41.5558508 56.6441958,41.8159441 56.8977622,42.3393939 C57.152634,42.8608858 57.2795804,43.7534266 57.2795804,45.01669 C57.2795804,46.2727739 57.1470862,47.1630303 56.8820979,47.6868065 C56.6180886,48.2122145 56.2193007,48.4752448 55.6909557,48.4752448 C55.1028904,48.4752448 54.6822378,48.2177622 54.428345,47.7011655 C54.1737995,47.1865268 54.0465268,46.291049 54.0465268,45.01669 C54.0465268,43.7648485 54.1793473,42.8768765 54.444662,42.3465734 Z" id="Fill-25" fill="#333333"></path>
                <polyline id="Fill-26" fill="#333333" points="59.1932401 47.8538928 60.1699767 47.8538928 60.1699767 42.9793473 60.245035 42.4356643 59.9552448 42.8654545 59.2359907 43.4763636 58.8597203 43.1324009 60.4708625 41.5558508 60.7821911 41.5558508 60.7821911 47.8538928 61.72662 47.8538928 61.72662 48.3616783 59.1932401 48.3616783 59.1932401 47.8538928"></polyline>
                <path d="M65.6280186,45.3309557 C65.2980886,46.1781352 64.9365035,46.8937995 64.5422844,47.4727273 L64.1888578,47.8950117 L64.1888578,47.9220979 L64.650303,47.8538928 L66.2177156,47.8538928 L66.2177156,48.3616783 L63.4157576,48.3616783 L63.4157576,48.1032168 C63.8811189,47.4919814 64.3471329,46.7041958 64.8118415,45.7359441 C65.2768765,44.7722611 65.5085781,43.9117016 65.5085781,43.1614452 C65.5085781,42.8187879 65.4315618,42.5469464 65.2791608,42.3531002 C65.1251282,42.1579487 64.9081119,42.062331 64.6294172,42.062331 C64.3278788,42.062331 64.0380886,42.1497902 63.7587413,42.3292774 L63.5443357,41.9275524 C63.8586014,41.6782284 64.2671795,41.5558508 64.7690909,41.5558508 C65.2122611,41.5558508 65.5490443,41.6929138 65.7778089,41.9663869 C66.0072261,42.2401865 66.1217716,42.6024242 66.1217716,43.05669 C66.1217716,43.7237296 65.9566434,44.4837762 65.6280186,45.3309557" id="Fill-27" fill="#333333"></path>
                <polyline id="Fill-28" fill="#333333" points="73.0610723 42.1951515 71.0429837 42.1951515 71.0429837 48.3616783 70.4092308 48.3616783 70.4092308 41.6687646 73.0610723 41.6687646 73.0610723 42.1951515"></polyline>
                <path d="M74.4640093,46.4633566 C74.5465734,46.8879254 74.6940793,47.241352 74.9045688,47.5259207 C75.1163636,47.8085315 75.3790676,47.9498368 75.6936597,47.9498368 C76.6031702,47.9498368 77.0580886,46.9734266 77.0580886,45.01669 C77.0580886,44.1610256 76.9484382,43.4577622 76.7301166,42.9065734 C76.5117949,42.3560373 76.1662005,42.0815851 75.6936597,42.0815851 C74.7919814,42.0815851 74.3406527,43.058648 74.3406527,45.01669 C74.3406527,45.5577622 74.3827506,46.0410723 74.4640093,46.4633566 Z M74.1745455,42.4154312 C74.4924009,41.842704 74.9995338,41.5558508 75.6936597,41.5558508 C76.4249883,41.5558508 76.9415851,41.8472727 77.2460606,42.4284848 C77.5492308,43.0136131 77.701958,43.8748252 77.701958,45.01669 C77.701958,46.1823776 77.5433566,47.0494639 77.2238695,47.6208858 C76.9056876,48.1919814 76.3946387,48.4752448 75.6936597,48.4752448 C74.9714685,48.4752448 74.4568298,48.1848019 74.153007,47.5973893 C73.8491841,47.0099767 73.6971096,46.1497436 73.6971096,45.01669 C73.6971096,43.8552448 73.8553846,42.9891375 74.1745455,42.4154312 Z" id="Fill-29" fill="#333333"></path>
                <path d="M81.6141259,47.8365967 L81.6141259,42.1951515 L80.1961772,42.1951515 C80.1452681,44.878648 79.9347786,46.7573893 79.5630769,47.8365967 L81.6141259,47.8365967 Z M82.8907692,49.6037296 L82.4404196,49.6037296 L82.3434965,48.3616783 L78.960979,48.3616783 L78.8529604,49.6037296 L78.4026107,49.6037296 L78.4026107,47.8365967 L78.9179021,47.8365967 C78.989697,47.6952914 79.0716084,47.4316084 79.1649417,47.041958 C79.2579487,46.6552448 79.3548718,45.9673193 79.4547319,44.9827506 C79.5552448,43.9981818 79.6045221,42.8925408 79.6045221,41.6687646 L82.2468998,41.6687646 L82.2468998,47.8365967 L82.8907692,47.8365967 L82.8907692,49.6037296 Z" id="Fill-30" fill="#333333"></path>
                <path d="M84.9444289,45.8661538 L86.3516084,45.8661538 L85.8137995,43.6773893 L85.6532401,42.6830303 L85.631049,42.6830303 L85.4711422,43.696317 L84.9444289,45.8661538 Z M86.5017249,46.3922145 L84.7835431,46.3922145 L84.2897902,48.3616783 L83.6560373,48.3616783 L85.492028,41.5558508 L85.8242424,41.5558508 L87.6723077,48.3616783 L87.0062471,48.3616783 L86.5017249,46.3922145 Z" id="Fill-31" fill="#333333"></path>
                <g id="Group-35">
                    <mask id="mask-2" fill="white">
                        <use xlink:href="#path-1"></use>
                    </mask>
                    <g id="Clip-33"></g>
                    <path d="M8.99459207,30.5931002 C8.74526807,30.5931002 8.52955711,30.8088112 8.52955711,31.0578089 C8.52955711,31.3064802 8.74526807,31.5241492 8.99459207,31.5241492 L15.525641,31.5241492 C15.7743124,31.5241492 15.9910023,31.3064802 15.9910023,31.0578089 C15.9910023,30.8088112 15.7743124,30.5931002 15.525641,30.5931002 L8.99459207,30.5931002" id="Fill-32" fill="#333333" mask="url(#mask-2)"></path>
                    <path d="M33.3634033,5.30792541 C32.9137063,4.85561772 32.4215851,4.47543124 31.9075991,4.17715618 C30.5147786,3.3616317 28.9352914,2.94913753 27.2138462,2.94913753 C26.195338,2.94913753 25.2215385,3.09403263 24.3227972,3.37729604 C24.0662937,3.02713287 23.7784615,2.68643357 23.4553846,2.36335664 C21.9287646,0.841305361 20.0653613,0.0688578089 17.9170629,0.0688578089 C15.7635431,0.0688578089 13.9004662,0.841305361 12.3738462,2.36335664 C12.0488112,2.68643357 11.758042,3.02713287 11.5080653,3.37729604 C10.6021445,3.09207459 9.63389277,2.94913753 8.61473193,2.94913753 C6.89785548,2.94913753 5.31347319,3.3616317 3.92032634,4.17715618 C3.40666667,4.47445221 2.91682984,4.85561772 2.4609324,5.30923077 C1.12228438,6.64461538 0.448065268,8.28219114 0.448065268,10.174965 C0.448065268,11.4369231 0.747972028,12.5898834 1.34615385,13.609697 C1.63724942,14.108345 2.0158042,14.5893706 2.4609324,15.0393939 C3.27319347,15.8474126 4.19804196,16.4211189 5.20578089,16.7415851 C5.28867133,16.7699767 5.37188811,16.7908625 5.45216783,16.81338 C5.47990676,17.311049 5.53799534,18.1755245 5.61044289,19.2831235 C5.64242424,19.7794872 5.67571096,20.3124009 5.71258741,20.889697 C5.79547786,22.0922611 5.86172494,23.1026107 5.90741259,23.8890909 C5.94559441,24.5721212 5.73445221,25.1758508 5.27594406,25.6846154 C4.81874126,26.19338 4.2388345,26.4681585 3.55613054,26.5076457 C2.87407925,26.5441958 2.26741259,26.3297902 1.75440559,25.8686713 C1.35496503,25.5093706 1.09715618,25.0802331 0.989137529,24.5877855 C0.962703963,24.4647552 0.944428904,24.3205128 0.931048951,24.1501632 C0.897762238,23.4736597 1.10531469,22.881352 1.53379953,22.3928205 C1.86862471,22.0344988 2.26904429,21.855338 2.75202797,21.8439161 L2.81827506,21.8432634 C3.23370629,21.8432634 3.57571096,21.9600932 3.89095571,22.2103963 C3.89911422,22.2198601 3.91543124,22.2263869 3.92456876,22.2325874 C4.11351981,22.3588811 4.39808858,22.3177622 4.54461538,22.1428438 C4.6216317,22.0485315 4.65622378,21.9153846 4.64643357,21.7936597 C4.63109557,21.6781352 4.56452214,21.5603263 4.47379953,21.4836364 C3.99440559,21.1027972 3.43995338,20.9135198 2.81827506,20.9135198 C2.79151515,20.9135198 2.76018648,20.9135198 2.73081585,20.9135198 C1.99491841,20.9295105 1.36344988,21.2114685 0.843916084,21.7646154 C0.24018648,22.4587413 -0.0420979021,23.2745921 0.00522144522,24.2059674 C0.0163170163,24.4220047 0.0407925408,24.6200932 0.0832167832,24.7875058 C0.231375291,25.4692308 0.586759907,26.0690443 1.13044289,26.5627972 C1.82881119,27.191655 2.66848485,27.4820979 3.60475524,27.4328205 C4.54494172,27.3819114 5.33827506,27.0075991 5.96648019,26.3059674 C6.59370629,25.6098834 6.88937063,24.7770629 6.83519814,23.8339394 C6.78951049,23.0422378 6.72391608,22.0331935 6.64363636,20.8276923 C6.60251748,20.2481119 6.56923077,19.7165035 6.54051282,19.2237296 C6.47491841,18.2554779 6.42368298,17.4804196 6.39398601,16.9703497 C6.54377622,16.9863403 6.69324009,16.9896037 6.84727273,16.9896037 C7.98228438,16.9896037 8.99752914,16.6652214 9.87864802,16.0184149 C9.98634033,15.9351981 10.0862005,15.8500233 10.1850816,15.7547319 C10.7020047,15.2374825 10.9643823,14.6030769 10.9643823,13.8678322 C10.9643823,13.6602797 10.9467599,13.4631702 10.9013986,13.2709557 C10.7937063,12.7843823 10.5522145,12.350676 10.1837762,11.9832168 C9.66293706,11.4675991 9.03048951,11.2052214 8.29916084,11.2052214 C7.56685315,11.2052214 6.93081585,11.4675991 6.40834499,11.9900699 C6.33426573,12.0677389 6.26997669,12.1352914 6.21156177,12.2064336 C5.95342657,12.5210256 5.76219114,12.8568298 5.62904429,13.2037296 C5.47011655,13.6178555 5.38787879,14.0763636 5.38787879,14.5671795 L5.39571096,14.8223776 C5.39571096,14.9414918 5.45151515,15.0664802 5.53832168,15.1529604 C5.62806527,15.2387879 5.75011655,15.292634 5.8767366,15.2864336 C6.11986014,15.2759907 6.32708625,15.0589744 6.31958042,14.8129138 L6.31958042,14.56 C6.31958042,14.1876457 6.37799534,13.8443357 6.50037296,13.5385548 C6.59762238,13.2804196 6.74317016,13.0297902 6.92592075,12.802331 C6.96867133,12.7520746 7.01794872,12.6979021 7.07179487,12.6414452 C7.41445221,12.3007459 7.81519814,12.1352914 8.29916084,12.1352914 C8.7811655,12.1352914 9.18452214,12.3007459 9.52750583,12.6414452 C9.76769231,12.8829371 9.92596737,13.1639161 9.99482517,13.469697 C10.019627,13.596317 10.033986,13.7262005 10.033986,13.8678322 C10.033986,14.3537529 9.86853147,14.7564569 9.53011655,15.0906294 C9.46680653,15.1558974 9.39664336,15.213986 9.32125874,15.2740326 C8.61244755,15.7945455 7.78027972,16.0608392 6.84727273,16.0608392 C6.55682984,16.0608392 6.26573427,16.0360373 5.98703963,15.9838228 C5.82027972,15.9511888 5.65417249,15.9064802 5.48773893,15.8552448 C4.6216317,15.5785082 3.82470862,15.0834499 3.11818182,14.3808392 C2.73081585,13.9902098 2.40219114,13.5715152 2.14503497,13.1368298 C1.63529138,12.2658275 1.37682984,11.2675524 1.37682984,10.174965 C1.37682984,8.53738928 1.96228438,7.12205128 3.11818182,5.96648019 C3.5169697,5.56997669 3.94153846,5.24135198 4.38731935,4.98158508 C5.64242424,4.24960373 7.06559441,3.8795338 8.61473193,3.8795338 C9.44624709,3.8795338 10.2448019,3.9839627 10.9885315,4.19314685 C10.9085781,4.3432634 10.8344988,4.49435897 10.7643357,4.65459207 C10.2692774,5.77818182 10.1524476,6.93244755 10.4105828,8.08867133 C10.4435431,8.21724942 10.4823776,8.34843823 10.5437296,8.51160839 C10.8344988,9.24424242 11.3458741,9.77780886 12.0700233,10.0986014 C12.7853613,10.408951 13.5372494,10.4236364 14.2682517,10.1371096 C15.0018648,9.85058275 15.5367366,9.33724942 15.8549184,8.61310023 C16.1714685,7.89156177 16.1825641,7.15011655 15.8983217,6.4165035 C15.8558974,6.30358974 15.8075991,6.20307692 15.7648485,6.11822844 C15.338648,5.28736597 14.6722611,4.66634033 13.7784149,4.27571096 L13.346014,4.09622378 C13.1280186,4.0179021 12.8512821,4.13962704 12.7599068,4.35305361 C12.7129138,4.46596737 12.7129138,4.60368298 12.7599068,4.71659674 C12.8059207,4.82428904 12.9018648,4.91827506 13.0108625,4.96265734 L13.4119347,5.13104895 C14.0943124,5.43160839 14.6102564,5.90643357 14.9346387,6.53724942 C14.9649883,6.5986014 15.0002331,6.66974359 15.0318881,6.75361305 C15.2263869,7.25748252 15.2179021,7.74470862 15.0018648,8.2397669 C14.7851748,8.73710956 14.43338,9.07291375 13.9282051,9.27132867 C13.4295571,9.46680653 12.9296037,9.45701632 12.4449883,9.2448951 C11.9388345,9.02265734 11.6079254,8.68065268 11.4131002,8.17645688 C11.3674126,8.06125874 11.3403263,7.96825175 11.3171562,7.88079254 C11.1063403,6.92689977 11.2062005,5.96648019 11.6147786,5.02727273 C11.7495571,4.72377622 11.9062005,4.44051282 12.0814452,4.1830303 C12.3399068,3.78424242 12.6606993,3.39263403 13.0304429,3.01897436 C14.3752914,1.68 16.020373,1.0002331 17.9170629,1.0002331 C19.8124476,1.0002331 21.4539394,1.68 22.7971562,3.01832168 C23.1659207,3.39198135 23.4841026,3.78424242 23.7543124,4.19314685 C23.9279254,4.44508159 24.0829371,4.72377622 24.2121678,5.02596737 C24.6223776,5.96909091 24.7268065,6.93016317 24.5107692,7.8772028 C24.4862937,7.97869464 24.4565967,8.07365967 24.420373,8.17351981 C24.2235897,8.67379953 23.8832168,9.0239627 23.3842424,9.24424242 C22.9002797,9.45734266 22.3993473,9.46680653 21.8951515,9.27132867 C21.3961772,9.07291375 21.0466667,8.73710956 20.8276923,8.24041958 C20.611655,7.74307692 20.6021911,7.25454545 20.7940793,6.76079254 C20.8306294,6.67300699 20.8593473,6.60904429 20.8968765,6.54149184 C21.2202797,5.90708625 21.7290443,5.43160839 22.4081585,5.13463869 L22.8072727,4.96787879 C22.9185548,4.92414918 23.0177622,4.82787879 23.0680186,4.71659674 C23.1097902,4.60531469 23.1150117,4.46857809 23.068345,4.35762238 C22.9766434,4.13342657 22.6835897,4.01072261 22.4587413,4.10405594 L22.0416783,4.27832168 C21.1540326,4.67025641 20.4905828,5.28867133 20.0702564,6.11300699 C20.0252214,6.19687646 19.9824709,6.28564103 19.9318881,6.41585082 C19.6447086,7.14587413 19.6590676,7.88536131 19.9733333,8.61244755 C20.2908625,9.33724942 20.8227972,9.85058275 21.5603263,10.1371096 C22.2942657,10.4236364 23.0474592,10.4086247 23.7575758,10.0969697 C24.4862937,9.77585082 24.9973427,9.24293706 25.2858275,8.51160839 C25.338042,8.37226107 25.3801399,8.23324009 25.4170163,8.08671329 C25.6793939,6.93668998 25.559627,5.78111888 25.0642424,4.65524476 C24.9973427,4.49729604 24.921958,4.3432634 24.8390676,4.19314685 C25.5857343,3.9839627 26.3780886,3.8795338 27.2138462,3.8795338 C28.7678788,3.8795338 30.1864802,4.24960373 31.4412587,4.98223776 C31.887366,5.24135198 32.3151981,5.57324009 32.7103963,5.96648019 C33.8672727,7.12433566 34.4520746,8.54 34.4520746,10.174965 C34.4520746,11.2649417 34.1949184,12.2632168 33.6793007,13.1368298 C33.4211655,13.5757576 33.0967832,13.9931469 32.7103963,14.3779021 C32.0064802,15.0834499 31.2082517,15.5785082 30.3365967,15.8552448 C30.1698368,15.9064802 30.0037296,15.9511888 29.8369697,15.9838228 C29.5576224,16.0360373 29.2792541,16.0608392 28.98,16.0608392 C28.047972,16.0608392 27.2151515,15.7945455 26.506014,15.2710956 C26.4355245,15.2218182 26.3692774,15.1607925 26.3013986,15.0968298 C25.9590676,14.7535198 25.7932867,14.3524476 25.7932867,13.8678322 C25.7932867,13.734359 25.8037296,13.6005594 25.8353846,13.4755711 C25.9035897,13.1639161 26.0618648,12.8829371 26.3013986,12.6434033 C26.6440559,12.3007459 27.0464336,12.1352914 27.5258275,12.1352914 C28.0120746,12.1352914 28.4147786,12.3007459 28.7544988,12.6414452 C28.8014918,12.6874592 28.8471795,12.7393473 28.8896037,12.7938462 C29.0857343,13.0297902 29.2296503,13.2787879 29.3298368,13.5398601 C29.446014,13.8472727 29.5044289,14.1899301 29.5044289,14.56 C29.5044289,14.8086713 29.7243823,15.025035 29.9701166,15.025035 C30.0924942,15.025035 30.2161772,14.9718415 30.2948252,14.8837296 C30.3845688,14.8008392 30.4358042,14.6778089 30.4358042,14.56 C30.4358042,14.0763636 30.3568298,13.6188345 30.1946387,13.2096037 C30.0660606,12.8568298 29.8705828,12.5210256 29.6085315,12.196317 C29.5370629,12.1147319 29.4711422,12.0452214 29.4114219,11.9832168 C28.8958042,11.4675991 28.263683,11.2052214 27.5258275,11.2052214 C26.7984149,11.2052214 26.1620513,11.4675991 25.6461072,11.9832168 C25.2760373,12.350676 25.0361772,12.7843823 24.9262005,13.2758508 C24.8850816,13.4677389 24.8638695,13.6658275 24.8638695,13.8678322 C24.8638695,14.6024242 25.1252681,15.2361772 25.6461072,15.75669 C25.7524942,15.8578555 25.8536597,15.9472727 25.9571096,16.021352 C26.8261538,16.6652214 27.8413986,16.9896037 28.98,16.9896037 C29.1340326,16.9896037 29.2792541,16.9863403 29.429697,16.9703497 C29.4032634,17.4344056 29.3588811,18.1572494 29.2877389,19.2263403 C29.2710956,19.4939394 29.2459674,19.7807925 29.2289977,20.1022378 L29.1790676,20.8276923 C29.1604662,21.1132401 29.1448019,21.390303 29.1265268,21.6500699 C29.0945455,22.0916084 29.0606061,22.47669 29.0299301,22.8408858 C28.9858741,23.240979 28.8974359,23.6299767 28.7564569,24.0055944 C28.7280653,24.0803263 28.6977156,24.1452681 28.6761772,24.1978089 C28.3651748,24.8540793 27.6632168,25.4519347 26.5755245,25.9838695 C25.2048951,26.6587413 23.5585082,27.0536131 21.685641,27.1560839 C20.2807459,27.2324476 18.8252681,27.2735664 17.3469464,27.2735664 C14.7685315,27.2735664 12.2475524,27.1485781 9.862331,26.9103497 C9.72004662,26.8897902 9.56242424,26.8826107 9.37967366,26.8826107 C8.32983683,26.8826107 7.42261072,27.2562704 6.67692308,27.9977156 C6.06111888,28.6118881 5.69561772,29.3490909 5.59379953,30.1760373 C5.46261072,31.1077389 5.39668998,32.0714219 5.39668998,33.0497902 C5.39668998,35.1311888 5.68745921,37.0967366 6.26083916,38.8844289 C6.83519814,40.6750583 7.70815851,42.3351515 8.8620979,43.8151049 C10.019627,45.3146387 11.3171562,46.4529138 12.7230303,47.2061072 C14.1432634,47.9612587 15.6999068,48.3473193 17.3603263,48.3473193 C19.0181352,48.3473193 20.5734732,47.9612587 21.99338,47.2061072 C23.3979487,46.4529138 24.6961305,45.3146387 25.8536597,43.82 C27.00662,42.3351515 27.8805594,40.6750583 28.4565501,38.8844289 C29.0299301,37.0967366 29.3216783,35.1311888 29.3216783,33.0497902 C29.3216783,32.9375291 29.3216783,32.8246154 29.3187413,32.7218182 L29.3187413,32.6702564 C29.305035,32.1040559 29.0968298,31.6151981 28.6970629,31.2157576 C28.2878322,30.8088112 27.7647086,30.5931002 27.1838228,30.5931002 L19.1767366,30.5931002 C18.5521212,30.5931002 18.0094172,30.8176224 17.56331,31.2572028 C17.126993,31.6974359 16.8952914,32.2558042 16.8952914,32.8742191 L16.8952914,38.0669464 C16.8952914,38.09338 16.8890909,38.0986014 16.8793007,38.109697 C16.8558042,38.1328671 16.8473193,38.1351515 16.8274126,38.1351515 L11.5315618,38.1351515 C11.2636364,38.1351515 11.0231235,38.234359 10.8266667,38.4246154 C10.6439161,38.6138928 10.5437296,38.8570163 10.5437296,39.12331 C10.5437296,39.18662 10.5522145,39.2561305 10.5685315,39.3406527 C10.8553846,40.582704 11.4826107,41.7023776 12.4374825,42.6507226 C13.7953846,44.0122145 15.4587413,44.7043823 17.3759907,44.7043823 C17.6207459,44.7043823 17.841352,44.4844289 17.841352,44.2373893 C17.841352,43.989697 17.6207459,43.7726807 17.3759907,43.7726807 C15.7132867,43.7726807 14.2698834,43.1748252 13.0953846,41.9967366 C12.2655012,41.1662005 11.7231235,40.2044755 11.48,39.1562704 C11.4783683,39.1409324 11.4751049,39.1317949 11.4751049,39.12331 C11.4751049,39.0994872 11.48,39.0903497 11.4924009,39.0795804 C11.5044755,39.0665268 11.5087179,39.0652214 11.5315618,39.0652214 L16.8274126,39.0652214 C17.0959907,39.0652214 17.3371562,38.966014 17.529697,38.7751049 C17.7202797,38.591049 17.8247086,38.3413986 17.8247086,38.0669464 L17.8247086,32.8742191 C17.8247086,32.4982751 17.9536131,32.1853147 18.2195804,31.9232634 C18.4907692,31.657296 18.8014452,31.5241492 19.1937063,31.5241492 L27.1838228,31.5241492 C27.5235431,31.5241492 27.799627,31.64 28.0378555,31.8723543 C28.2653147,32.1040559 28.3814918,32.3700233 28.3899767,32.6816783 L28.3899767,32.7306294 C28.390303,32.8373427 28.390303,32.9447086 28.390303,33.0497902 C28.390303,37.022331 27.2905361,40.4541259 25.1206993,43.2479254 C22.9766434,46.0165967 20.3646154,47.4182284 17.3603263,47.4182284 C14.3514685,47.4182284 11.7400932,46.0165967 9.59571096,43.2479254 C7.4248951,40.4541259 6.32545455,37.0197203 6.32545455,33.0497902 C6.32545455,32.1184149 6.39006993,31.1909557 6.5193007,30.2977622 C6.59370629,29.6764103 6.86848485,29.1206527 7.33384615,28.654965 C7.89547786,28.0985548 8.58144522,27.8100699 9.37967366,27.8100699 C9.51902098,27.8100699 9.63682984,27.8146387 9.75365967,27.8325874 C12.1816317,28.0806061 14.7398135,28.2016783 17.3603263,28.2016783 C18.8477855,28.2016783 20.3212121,28.1641492 21.7355711,28.0858275 C23.7337529,27.9745455 25.5018648,27.547366 26.9841026,26.8179953 C28.2653147,26.1956643 29.1128205,25.4470396 29.5197669,24.5877855 C29.5546853,24.5124009 29.5912354,24.4220047 29.6284382,24.3267133 C29.7955245,23.8890909 29.9038695,23.4168765 29.9537995,22.9257343 C29.9870862,22.5589277 30.0200466,22.1647086 30.0536597,21.7156643 C30.0699767,21.4536131 30.0911888,21.1791608 30.1104429,20.889697 L30.1678788,20.0297902 C30.1861538,19.7667599 30.2014918,19.5144988 30.2161772,19.2844289 C30.2997203,18.0117016 30.3499767,17.2454545 30.3692308,16.8146853 C30.4524476,16.7908625 30.5356643,16.7699767 30.6188811,16.7415851 C31.6318415,16.4211189 32.55669,15.8474126 33.3682984,15.0393939 C33.8091841,14.5955711 34.1838228,14.1145455 34.4837296,13.609697 C35.0760373,12.5849883 35.3834499,11.431049 35.3834499,10.174965 C35.3834499,8.28480186 34.70662,6.64820513 33.3634033,5.30792541" id="Fill-34" fill="#333333" mask="url(#mask-2)"></path>
                </g>
            </g>
        </g>
    </g>
</svg>