<?xml version="1.0" encoding="UTF-8"?>
<svg width="60px" height="56px" viewBox="0 0 60 56" version="1.1" xmlns="http://www.w3.org/2000/svg" xmlns:xlink="http://www.w3.org/1999/xlink">
    <!-- Generator: Sketch 47.1 (45422) - http://www.bohemiancoding.com/sketch -->
    <title>Page 1 Copy 2</title>
    <desc>Created with Sketch.</desc>
    <defs></defs>
    <g id="Chefmarket_01_main" stroke="none" stroke-width="1" fill="none" fill-rule="evenodd" fill-opacity="0.2">
        <g id="Chefmarket_01_main_2" transform="translate(-761.000000, -4791.000000)" fill="#57BC90">
            <path d="M817.25,4820.8658 L802.25,4820.8658 L802.25,4817.1342 C802.25,4809.48062 806,4801.84943 813.5,4799.28454 L813.5,4791 C802.25,4794.15104 794.75,4805.29168 794.75,4817.1342 L794.75,4824.60112 L794.75,4843.26841 C794.75,4845.32741 796.42625,4847 798.5,4847 L817.25,4847 C819.321875,4847 821,4845.32741 821,4843.26841 L821,4824.60112 C821,4822.53838 819.321875,4820.8658 817.25,4820.8658 M787.25,4824.60112 L787.25,4843.26841 C787.25,4845.32741 785.571875,4847 783.5,4847 L764.75,4847 C762.678125,4847 761,4845.32741 761,4843.26841 L761,4824.60112 L761,4817.1342 C761,4805.29168 768.1475,4794.15104 779.75,4791 L779.75,4799.28454 C772.6025,4801.8513 768.5,4809.48248 768.5,4817.1342 L768.5,4820.8658 L783.5,4820.8658 C785.571875,4820.8658 787.25,4822.53838 787.25,4824.60112" id="Page-1-Copy-2"></path>
        </g>
    </g>
</svg>