<?xml version="1.0" encoding="UTF-8"?>
<svg width="76px" height="81px" viewBox="0 0 76 81" version="1.1" xmlns="http://www.w3.org/2000/svg" xmlns:xlink="http://www.w3.org/1999/xlink">
    <!-- Generator: Sketch 49.1 (51147) - http://www.bohemiancoding.com/sketch -->
    <title>calendar_large</title>
    <desc>Created with Sketch.</desc>
    <defs></defs>
    <g id="Symbols" stroke="none" stroke-width="1" fill="none" fill-rule="evenodd">
        <g id="dish/cheff_huge_red_2" transform="translate(-35.000000, -520.000000)">
            <g id="dish" transform="translate(1.000000, 1.000000)">
                <g id="photo">
                    <g id="time">
                        <g id="Group-4" transform="translate(35.000000, 519.000000)">
                            <g id="calendar_large">
                                <path d="M5.63466667,7.86666667 L68.4186667,7.86666667 C71.384,7.86666667 73.8106667,10.288 73.8106667,13.2533333 L73.8106667,74.6933333 C73.8106667,77.6586667 71.384,80.0853333 68.4186667,80.0853333 L5.63466667,80.0853333 C2.66933333,80.0853333 0.242666667,77.6586667 0.242666667,74.6933333 L0.242666667,13.2533333 C0.242666667,10.288 2.66933333,7.86666667 5.63466667,7.86666667 Z M0.242666667,22.6186667 L73.8106667,22.6186667 L0.242666667,22.6186667 Z" id="Stroke-249" stroke="#A6D8A5" stroke-width="1.5" stroke-linecap="round"></path>
                                <path d="M15.0266667,0.949333333 C16.8346667,0.949333333 18.3066667,2.42666667 18.3066667,4.23466667 L18.3066667,12.6933333 C18.3066667,14.5013333 16.8346667,15.9786667 15.0266667,15.9786667 C13.2186667,15.9786667 11.7466667,14.5013333 11.7466667,12.6933333 L11.7466667,4.23466667 C11.7466667,2.42666667 13.2186667,0.949333333 15.0266667,0.949333333 Z" id="Fill-250" fill="#FFFFFF"></path>
                                <path d="M15.0266667,0.949333333 C16.8346667,0.949333333 18.3066667,2.42666667 18.3066667,4.23466667 L18.3066667,12.6933333 C18.3066667,14.5013333 16.8346667,15.9786667 15.0266667,15.9786667 C13.2186667,15.9786667 11.7466667,14.5013333 11.7466667,12.6933333 L11.7466667,4.23466667 C11.7466667,2.42666667 13.2186667,0.949333333 15.0266667,0.949333333 Z" id="Stroke-251" stroke="#A6D8A5" stroke-width="1.5" stroke-linecap="round"></path>
                                <path d="M59.0266667,0.949333333 C60.8346667,0.949333333 62.3066667,2.42666667 62.3066667,4.23466667 L62.3066667,12.6933333 C62.3066667,14.5013333 60.8346667,15.9786667 59.0266667,15.9786667 C57.2186667,15.9786667 55.7466667,14.5013333 55.7466667,12.6933333 L55.7466667,4.23466667 C55.7466667,2.42666667 57.2186667,0.949333333 59.0266667,0.949333333 Z" id="Fill-252" fill="#FFFFFF"></path>
                                <path d="M59.0266667,0.949333333 C60.8346667,0.949333333 62.3066667,2.42666667 62.3066667,4.23466667 L62.3066667,12.6933333 C62.3066667,14.5013333 60.8346667,15.9786667 59.0266667,15.9786667 C57.2186667,15.9786667 55.7466667,14.5013333 55.7466667,12.6933333 L55.7466667,4.23466667 C55.7466667,2.42666667 57.2186667,0.949333333 59.0266667,0.949333333 Z" id="Stroke-253" stroke="#A6D8A5" stroke-width="1.5" stroke-linecap="round"></path>
                            </g>
                        </g>
                    </g>
                </g>
            </g>
        </g>
    </g>
</svg>