<?xml version="1.0" encoding="UTF-8"?>
<svg width="20px" height="18px" viewBox="0 0 20 18" version="1.1" xmlns="http://www.w3.org/2000/svg" xmlns:xlink="http://www.w3.org/1999/xlink">
    <!-- Generator: Sketch 49.1 (51147) - http://www.bohemiancoding.com/sketch -->
    <title>cook</title>
    <desc>Created with Sketch.</desc>
    <defs></defs>
    <g id="Symbols" stroke="none" stroke-width="1" fill="none" fill-rule="evenodd">
        <g id="dish/cheff_huge_red_2" transform="translate(-318.000000, -580.000000)" stroke="#A6D8A5">
            <g id="dish" transform="translate(1.000000, 1.000000)">
                <g id="photo">
                    <g id="time">
                        <path d="M331.314941,583.567002 C331.752821,583.344112 332.253978,583.218893 332.780446,583.218893 C334.557275,583.218893 336,584.643889 336,586.401968 C336,588.142516 334.587648,589.55499 332.83613,589.585043 L332.83613,591.621109 L332.81335,595.201377 C332.81335,595.559504 332.517212,595.855022 332.155265,595.855022 L322.266272,595.855022 C321.901794,595.855022 321.605656,595.559504 321.605656,595.201377 L321.605656,589.43478 C319.854137,589.407232 318.444316,587.992253 318.444316,586.251705 C318.444316,584.493625 319.88451,583.068629 321.66134,583.068629 C322.205525,583.068629 322.716807,583.201362 323.167342,583.439279 C324.030446,579.119212 330.305033,579.244431 331.314941,583.567002 Z M321.444316,592.261457 L332.67479,592.261457 L321.444316,592.261457 Z" id="cook"></path>
                    </g>
                </g>
            </g>
        </g>
    </g>
</svg>