<?xml version="1.0" encoding="UTF-8"?>
<svg width="20px" height="18px" viewBox="0 0 20 18" version="1.1" xmlns="http://www.w3.org/2000/svg" xmlns:xlink="http://www.w3.org/1999/xlink">
    <!-- Generator: Sketch 49.1 (51147) - http://www.bohemiancoding.com/sketch -->
    <title>pot</title>
    <desc>Created with Sketch.</desc>
    <defs></defs>
    <g id="Symbols" stroke="none" stroke-width="1" fill="none" fill-rule="evenodd">
        <g id="dish/cheff_huge_red_2" transform="translate(-147.000000, -580.000000)">
            <g id="dish" transform="translate(1.000000, 1.000000)">
                <g id="photo">
                    <g id="time">
                        <g id="pot" transform="translate(146.000000, 579.000000)">
                            <path d="M2.9005891,7.22468557 L16.5793078,7.22468557 L16.5793078,14.4903463 C16.5793078,15.7136614 15.6114875,16.7142857 14.4282769,16.7142857 L5.05162003,16.7142857 C3.86840943,16.7142857 2.9005891,15.7136614 2.9005891,14.4903463 L2.9005891,7.22468557 Z M2.78571429,6.89510308 C4.22452135,4.40987301 6.80633284,2.78571429 9.75,2.78571429 C12.6936672,2.78571429 15.2754786,4.44253434 16.7142857,6.9247952 L2.78571429,6.89510308 Z" id="Stroke-9" stroke="#A6D8A5"></path>
                            <path d="M9.66085714,0 C10.3795714,0 10.9617857,0.582214286 10.9617857,1.30092857 C10.9617857,2.02242857 10.3795714,2.60464286 9.66085714,2.60464286 C8.94214286,2.60464286 8.35714286,2.02242857 8.35714286,1.30092857 C8.35714286,0.582214286 8.94214286,0 9.66085714,0" id="Fill-10" fill="#A6D8A5"></path>
                            <path d="M1.0335,8.35714286 L2.62414286,8.35714286 L2.62414286,10.4241429 L1.0335,10.4241429 C0.465214286,10.4241429 0,9.95892857 0,9.39064286 C0,8.82235714 0.465214286,8.35714286 1.0335,8.35714286" id="Fill-11" fill="#A6D8A5"></path>
                            <path d="M18.3049286,8.35714286 L16.7142857,8.35714286 L16.7142857,10.4241429 L18.3049286,10.4241429 C18.8732143,10.4241429 19.3356429,9.95892857 19.3356429,9.39064286 C19.3356429,8.82235714 18.8732143,8.35714286 18.3049286,8.35714286" id="Fill-12" fill="#A6D8A5"></path>
                        </g>
                    </g>
                </g>
            </g>
        </g>
    </g>
</svg>